<svg width="1289" height="405" viewBox="0 0 1289 405" fill="none" xmlns="http://www.w3.org/2000/svg">
<path fill-rule="evenodd" clip-rule="evenodd" d="M699.525 107.891V191.506H672.013V113.825C672.013 89.0099 658.527 77.9511 641.264 77.9511C624.002 77.9511 607.819 89.2796 607.819 115.983V191.506H580.307V0H607.819V72.8262H609.707C617.259 62.5766 628.318 53.9454 649.086 53.9454C679.026 53.9454 699.525 73.096 699.525 107.891ZM72.2862 191.512C108.969 191.512 131.086 172.631 131.086 139.724C131.086 111.133 114.094 97.9167 99.5284 92.5221V91.1735C113.284 84.7001 125.961 73.3715 125.961 49.6356C125.961 21.8537 108.429 2.70312 72.0165 2.70312H0V191.512H72.2862ZM68.2403 82.812H27.7816V25.8996H69.0495C86.3119 25.8996 97.6403 36.1492 97.6403 53.6815C97.6403 71.2137 87.3908 82.812 68.2403 82.812ZM69.8587 106.008C89.8183 106.008 102.226 119.495 102.226 137.836C102.226 155.908 90.3578 168.315 69.8587 168.315H27.7816V106.008H69.8587ZM172.625 131.087H272.423C272.475 130.405 272.528 129.754 272.578 129.127C272.787 126.531 272.962 124.359 272.962 122.186C272.962 75.7932 244.102 53.9453 211.195 53.9453C174.513 53.9453 145.652 81.4575 145.652 125.423C145.652 166.961 173.434 194.203 212.274 194.203C244.102 194.203 266.759 178.02 272.423 151.047H245.99C241.674 164.803 229.267 171.816 212.274 171.816C188.539 171.816 173.973 155.093 172.625 131.087ZM246.26 111.667H172.895C175.592 91.9768 190.427 76.3326 211.195 76.3326C231.964 76.3326 245.99 90.8979 246.26 111.667ZM293.053 56.6426H317.867L320.565 72.8262H322.453C330.005 62.5766 341.064 53.9453 361.832 53.9453C391.772 53.9453 412.271 73.0959 412.271 107.891V191.506H384.759V113.825C384.759 89.0098 371.273 77.951 354.01 77.951C336.748 77.951 320.565 89.2795 320.565 115.982V191.506H293.053V56.6426ZM498.316 53.9453C459.206 53.9453 430.346 83.3455 430.346 124.883C430.346 164.533 457.048 194.203 498.586 194.203C532.032 194.203 556.577 175.592 561.432 146.462H533.92C528.795 161.027 517.197 170.198 498.586 170.198C473.232 170.198 457.588 151.856 457.588 124.883C457.588 97.9108 474.581 77.951 498.316 77.951C517.197 77.951 530.144 89.5493 533.38 103.575H560.892C556.307 70.9381 528.795 53.9453 498.316 53.9453ZM748.885 56.6426H724.07V191.506H751.582V109.779C751.582 87.9309 766.147 77.951 779.634 77.951C793.929 77.951 805.527 88.2006 805.527 108.7V191.506H833.039V110.318C833.039 90.8979 844.637 77.951 861.36 77.951C875.386 77.951 887.254 87.1217 887.254 107.351V191.506H914.766V101.957C914.766 69.8592 896.424 53.9453 869.991 53.9453C846.795 53.9453 834.927 65.5436 828.184 76.8721H826.296C821.98 66.8922 812.001 53.9453 790.153 53.9453C771.542 53.9453 760.483 62.5766 753.47 72.5565H751.582L748.885 56.6426ZM1060.14 170.737V191.506H1047.73C1035.05 191.506 1026.15 187.46 1022.38 174.783C1013.21 186.381 998.372 194.203 978.142 194.203C951.979 194.203 932.289 181.796 932.289 155.363C932.289 128.929 951.709 116.522 977.603 114.094L1018.87 110.048V103.305C1018.87 86.0428 1009.16 76.3326 992.438 76.3326C975.715 76.3326 967.353 86.0428 964.926 100.069H937.684C940.111 73.3656 960.071 53.9453 992.438 53.9453C1024.8 53.9453 1046.38 70.6684 1046.38 104.384V159.678C1046.38 167.231 1049.89 170.737 1056.63 170.737H1060.14ZM1018.87 129.739L986.773 132.975C970.86 134.324 959.801 141.337 959.801 154.284C959.801 167.231 970.051 172.625 982.188 172.625C998.911 172.625 1018.87 163.994 1018.87 139.718V129.739ZM1101.96 56.6426H1077.14V191.506H1104.65V123.535C1104.65 100.338 1115.44 80.6483 1141.07 80.6483C1145.65 80.6483 1149.97 80.918 1154.28 81.4574V53.9453H1145.65C1123.26 53.9453 1113.82 62.8463 1106.54 75.5235H1104.65L1101.96 56.6426ZM1233.03 110.858L1288.33 191.506H1257.85L1214.42 129.199L1197.7 145.652V191.506H1170.19V0H1197.7V110.588H1199.59L1255.15 56.6426H1288.33L1233.03 110.858ZM144.572 402.313V213.504H116.251V293.882H28.3211V213.504H0V402.313H28.3211V319.506H116.251V402.313H144.572ZM232.768 264.742C193.119 264.742 163.988 293.873 163.988 334.871C163.988 375.33 193.119 405 232.768 405C272.418 405 302.087 375.6 302.087 334.871C302.087 294.142 272.418 264.742 232.768 264.742ZM232.768 288.748C257.852 288.748 274.845 309.517 274.845 334.871C274.845 359.956 257.852 380.994 232.768 380.994C207.684 380.994 191.23 360.225 191.23 334.871C191.23 309.517 207.684 288.748 232.768 288.748ZM321.154 267.439H345.969L348.666 283.353H350.554C357.567 273.373 368.626 264.742 387.237 264.742C409.085 264.742 419.064 277.689 423.38 287.669H425.268C432.011 276.34 443.879 264.742 467.075 264.742C493.508 264.742 511.85 280.656 511.85 312.754V402.303H484.338V318.148C484.338 297.919 472.47 288.748 458.444 288.748C441.721 288.748 430.123 301.695 430.123 321.115V402.303H402.611V319.497C402.611 298.997 391.013 288.748 376.718 288.748C363.231 288.748 348.666 298.728 348.666 320.576V402.303H321.154V267.439ZM557.597 341.884H657.396C657.414 341.646 657.432 341.412 657.45 341.181C657.484 340.75 657.518 340.331 657.551 339.922C657.76 337.327 657.935 335.155 657.935 332.983C657.935 286.59 629.075 264.742 596.168 264.742C559.486 264.742 530.625 292.254 530.625 336.22C530.625 377.758 558.407 405 597.247 405C629.075 405 651.731 388.816 657.396 361.844H630.963C626.647 375.6 614.24 382.613 597.247 382.613C573.511 382.613 558.946 365.89 557.597 341.884ZM631.232 322.464H557.867C560.564 302.774 575.399 287.129 596.168 287.129C616.937 287.129 630.963 301.695 631.232 322.464ZM671.15 360.495H697.583C699.202 377.758 711.339 383.961 726.174 383.961C738.582 383.961 749.64 379.106 749.64 366.969C749.64 353.482 737.233 348.357 723.207 344.581L712.688 341.884C695.965 337.299 675.196 330.016 675.196 304.122C675.196 278.228 697.314 264.742 722.668 264.742C756.653 264.742 772.027 284.162 773.376 304.122H746.943C745.594 293.333 736.963 285.781 722.938 285.781C711.07 285.781 701.629 291.715 701.629 302.774C701.629 314.642 712.688 318.148 725.904 321.924L736.154 324.621C756.923 330.286 776.073 340.535 776.073 366.159C776.073 393.132 753.416 405 726.444 405C690.571 405 672.499 386.928 671.15 360.495Z" fill="black"/>
</svg>
